# xmcd
#
# Track frame offsets: 
#        150
#        12018
#        21186
#        33778
#        44293
#        54793
#        73881
#        87368
#        101598
#        111351
#        122586
#        133096
#        139611
#        152336
#        163386
#        178858
#        188338
#        200336
#        211061
#        220998
#        238891
#
# Disc length: 3353 seconds
#
# Revision: 6
# Processed by: cddbd v1.5.2PL0 Copyright (c) Steve Scherf et al.
# Submitted via: ExactAudioCopy v0.99pb3
#
DISCID=1f0d1715
DTITLE=Eric Clapton - The Blues Years
DYEAR=1999
DGENRE=Blues
TTITLE0=Got To Hurry (Eric Clapton With The Yardbirds)
TTITLE1=I Ain't Got You (Eric Clapton With The Yardbirds)
TTITLE2=Good Morning Little Schoolgirl (Eric Clapton With The Yardbird
TTITLE2=s)
TTITLE3=Let It Rock (Eric Clapton With The Yardbirds)
TTITLE4=A Certain Girl (Eric Clapton With The Yardbirds)
TTITLE5=Take It Easy Baby (Eric Clapton With The Yardbirds)
TTITLE6=Too Much Monkey Business (Eric Clapton With The Yardbirds)
TTITLE7=Draggin' My Tail (Eric Clapton With The Immediate All-Stars)
TTITLE8=Tribute To Elmore (Eric Clapton With The Immediate All-Stars)
TTITLE9=Snake Drive (Eric Clapton With The Immediate All-Stars)
TTITLE10=West Coast Idea (Eric Clapton With The Immediate All-Stars)
TTITLE11=Choker (Eric Clapton With The Immediate All-Stars)
TTITLE12=Freight Loader (Eric Clapton With The Immediate All-Stars)
TTITLE13=Miles Road (Eric Clapton With The Immediate All-Stars)
TTITLE14=Down In The Boots (Jimmy Page With The Immediate All-Stars)
TTITLE15=L.A. Breakdown (Jimmy Page With The Immediate All-Stars)
TTITLE16=Steelin' (Jeff Beck With The Immediate All-Stars)
TTITLE17=Chuckles (Jeff Beck With The Immediate All-Stars)
TTITLE18=I'm Your Witch Doctor (Eric Clapton With John Mayall's Bluesb
TTITLE18=reakers)
TTITLE19=Telephone Blues (Eric Clapton With John Mayall's Bluesbreaker
TTITLE19=s)
TTITLE20=On Top Of The World (Eric Clapton With John Mayall's Bluesbre
TTITLE20=akers)
EXTD=ID3G:   0
EXTT0=
EXTT1=
EXTT2=
EXTT3=
EXTT4=
EXTT5=
EXTT6=
EXTT7=
EXTT8=
EXTT9=
EXTT10=
EXTT11=
EXTT12=
EXTT13=
EXTT14=
EXTT15=
EXTT16=
EXTT17=
EXTT18=
EXTT19=
EXTT20=
PLAYORDER=
